# xmcd
#
# Track frame offsets:
#	150
#	15655
#	31335
#	49948
#	66657
#	83395
#	98112
#	120816
#	139758
#	167947
#	186713
#	205754
#	220483
#	241325
#	261693
#	283991
#	305367
#	324407
#
# Disc length: 4567 seconds
#
# Revision: 1
# Processed by: cddbd v1.5.2PL0 Copyright (c) Steve Scherf et al.
# Submitted via: audiograbber 1.83.01
#
DISCID=1111d512
DTITLE=Kool and the Gang - The Album CD 2
DYEAR=2010
DGENRE=Funk, Soul
TTITLE0=Jungle Boogie feat. Redman
TTITLE1=Funky Stuff feat. Big Brovaz
TTITLE2=Take my heart feat. Blu Cantrell
TTITLE3=Ladies Night feat. Spanner Banner and Sean Paul
TTITLE4=Where da Boggie at? feat. R.O.C. and Da Prince Harim
TTITLE5=In the heart feat. D Side
TTITLE6=No Show feat. Blackstreet
TTITLE7=Big Thangs feat. Da Prince Harim
TTITLE8=Jazziacs at the Kool Jazz Cafe
TTITLE9=Jungle in my house feat. FM and Rachid
TTITLE10=Misled feat. Tony Hadley
TTITLE11=Tonight feat. Indi Gregg
TTITLE12=Cherish feat. Natural
TTITLE13=Serious feat. Xavier Naidoo and Mouse T.
TTITLE14=Show us the way to  love
TTITLE15=The weight
TTITLE16=Give right now to you
TTITLE17=My search is over
EXTD=
EXTT0=
EXTT1=
EXTT2=
EXTT3=
EXTT4=
EXTT5=
EXTT6=
EXTT7=
EXTT8=
EXTT9=
EXTT10=
EXTT11=
EXTT12=
EXTT13=
EXTT14=
EXTT15=
EXTT16=
EXTT17=
PLAYORDER=
